
<svg xmlns="http://www.w3.org/2000/svg" width="120" height="120" viewBox="0 0 120 120">
  <circle cx="60" cy="60" r="50" fill="#0288D1"/>
  <path fill="#ffffff" d="M60,30c-16.6,0-30,13.4-30,30c0,13.3,8.6,24.6,20.5,28.6c1.5,0.3,2-0.6,2-1.3c0-0.6,0-2.3,0-4.5
    c-8.3,1.8-10-4-10-4c-1.4-3.5-3.5-4.4-3.5-4.4c-2.8-1.9,0.2-1.9,0.2-1.9c3.1,0.2,4.8,3.2,4.8,3.2c2.7,4.7,7.1,3.3,8.9,2.5
    c0.3-2,1-3.3,1.8-4.1c-6.7-0.8-13.7-3.3-13.7-14.7c0-3.2,1.1-5.8,3-7.9c-0.3-0.8-1.3-4.1,0.3-8.6c0,0,2.5-0.8,8.2,3
    c2.4-0.7,5-1,7.5-1c2.5,0,5.1,0.3,7.5,1c5.7-3.8,8.2-3,8.2-3c1.6,4.5,0.6,7.8,0.3,8.6c1.9,2.1,3,4.7,3,7.9c0,11.5-7,13.9-13.8,14.6
    c1,0.8,1.9,2.4,1.9,4.9c0,3.6,0,6.5,0,7.4c0,0.7,0.5,1.6,2,1.3C81.4,84.6,90,73.3,90,60C90,43.4,76.6,30,60,30z"/>
</svg>
